# xmcd CD database file
# Copyright (C) 1993-1998 Ti Kan
# 
# Track frame offsets:
#     183
#     13223
#     24358
#     36065
#     45140
#     58268
#     72648
#     82180
#     90058
#     101998
#     115165
#     124980
#     136090
# 
# Disc length: 1958 seconds
# 
# Revision: 1
# Processed by: cddbd v1.4b41PL1 Copyright (c) Steve Scherf et al.
# Submitted via: DiscPlay 4.0.4
# 
DISCID=aa07a40d
DTITLE=Jim Reeves - Welcome to my World   Disc 2
DYEAR=1900
DGENRE=
TTITLE0=Distant Drums
TTITLE1=Just Walking in the Rain
TTITLE2=Have You Ever Been Lonely?
TTITLE3=I Won't Forget You
TTITLE4=The White Cliffs of Dover
TTITLE5=Guilty
TTITLE6=The Hawaian Wedding Song
TTITLE7=You Are My Love
TTITLE8=In The Misty Moonlight
TTITLE9=You'll Never Know
TTITLE10=Somewhere Along the Line
TTITLE11=Someday
TTITLE12=How's the World Treating You
EXTD=
EXTT0=
EXTT1=
EXTT2=
EXTT3=
EXTT4=
EXTT5=
EXTT6=
EXTT7=
EXTT8=
EXTT9=
EXTT10=
EXTT11=
EXTT12=
PLAYORDER=
